<svg width="50" height="50" viewBox="0 0 50 50" fill="none" xmlns="http://www.w3.org/2000/svg">
<path d="M15 12.75V13.75C15.3557 13.75 15.6846 13.5611 15.8638 13.2539L15 12.75ZM18.5 6.75V5.75C18.1443 5.75 17.8154 5.93891 17.6362 6.24613L18.5 6.75ZM31.5 6.75L32.3638 6.24613C32.1846 5.93891 31.8557 5.75 31.5 5.75V6.75ZM35 12.75L34.1362 13.2539C34.3154 13.5611 34.6443 13.75 35 13.75V12.75ZM6 38.25V17.75H4V38.25H6ZM10 13.75H15V11.75H10V13.75ZM15.8638 13.2539L19.3638 7.25387L17.6362 6.24613L14.1362 12.2461L15.8638 13.2539ZM18.5 7.75H31.5V5.75H18.5V7.75ZM30.6362 7.25387L34.1362 13.2539L35.8638 12.2461L32.3638 6.24613L30.6362 7.25387ZM35 13.75H40V11.75H35V13.75ZM44 17.75V38.25H46V17.75H44ZM44 38.25C44 40.4591 42.2091 42.25 40 42.25V44.25C43.3137 44.25 46 41.5637 46 38.25H44ZM40 13.75C42.2091 13.75 44 15.5409 44 17.75H46C46 14.4363 43.3137 11.75 40 11.75V13.75ZM6 17.75C6 15.5409 7.79086 13.75 10 13.75V11.75C6.68629 11.75 4 14.4363 4 17.75H6ZM10 42.25C7.79086 42.25 6 40.4591 6 38.25H4C4 41.5637 6.68629 44.25 10 44.25V42.25ZM31.5 26.75C31.5 30.3399 28.5898 33.25 25 33.25V35.25C29.6944 35.25 33.5 31.4444 33.5 26.75H31.5ZM25 33.25C21.4101 33.25 18.5 30.3399 18.5 26.75H16.5C16.5 31.4444 20.3056 35.25 25 35.25V33.25ZM18.5 26.75C18.5 23.1601 21.4101 20.25 25 20.25V18.25C20.3056 18.25 16.5 22.0556 16.5 26.75H18.5ZM25 20.25C28.5898 20.25 31.5 23.1601 31.5 26.75H33.5C33.5 22.0556 29.6944 18.25 25 18.25V20.25ZM40 42.25H10V44.25H40V42.25Z" fill="black"/>
</svg>
